<svg id="Layer_5" height="512" viewBox="0 0 64 64" width="512" xmlns="http://www.w3.org/2000/svg" data-name="Layer 5"><path d="m46 30v-20h-.5v2.83h-44.5v23.12h17v-5.95zm-23-15.05a6 6 0 1 1 -6 6 6 6 0 0 1 6-6z" fill="#0286e7"/><circle cx="23" cy="20.95" fill="#2aaff5" r="6"/><path d="m18 30v25h45v-25zm22 17.95a6 6 0 1 1 6-6 6 6 0 0 1 -6 6z" fill="#ffaf00"/><circle cx="40" cy="41.95" fill="#fdc12a" r="6"/><path d="m1 10h45v2.83h-45z" fill="#2aaff5"/><circle cx="9.5" cy="20.5" fill="#2aaff5" r="2.5"/><circle cx="36.5" cy="20.5" fill="#2aaff5" r="2.5"/><circle cx="26.5" cy="41.5" fill="#cc8a06" r="2.5"/><circle cx="53.5" cy="41.5" fill="#cc8a06" r="2.5"/><path d="m18.92 59.62a1 1 0 0 0 -.22-.33l-3-3a1 1 0 0 0 -1.41 1.41l1.3 1.3h-4a6.58 6.58 0 0 1 -6.59-6.57v-5l1.29 1.29a1 1 0 0 0 1.41-1.41l-3-3a1 1 0 0 0 -1.42 0l-3 3a1 1 0 0 0 1.41 1.41l1.31-1.31v5a8.58 8.58 0 0 0 8.57 8.59h4l-1.29 1.29a1 1 0 1 0 1.41 1.41l3-3a1 1 0 0 0 .22-1.09z" fill="#fdc12a"/><path d="m63.69 15.32a1 1 0 0 0 -1.41 0l-1.28 1.28v-5a8.58 8.58 0 0 0 -8.55-8.6h-4l1.3-1.29a1 1 0 0 0 -1.43-1.43l-3 3a1 1 0 0 0 0 1.41l3 3a1 1 0 0 0 1.42-1.41l-1.31-1.28h4a6.58 6.58 0 0 1 6.57 6.58v5l-1.29-1.3a1 1 0 0 0 -1.42 1.41l3 3a1 1 0 0 0 .71.31 1 1 0 0 0 .67-.27l3-3a1 1 0 0 0 .02-1.41z" fill="#fdc12a"/><g fill="#2aaff5"><path d="m6 0h2v6h-2z" transform="matrix(.707 -.707 .707 .707 -.07 5.83)"/><path d="m4 2h6v2h-6z" transform="matrix(.707 -.707 .707 .707 -.07 5.83)"/><path d="m52 27h-2a1 1 0 0 1 0-2h2a1 1 0 0 1 0 2z"/><path d="m53 17h-3a1 1 0 0 1 0-2h3a1 1 0 0 1 0 2z"/><path d="m38 61h-3a1 1 0 0 1 0-2h3a1 1 0 0 1 0 2z"/><path d="m55 61h-3a1 1 0 0 1 0-2h3a1 1 0 0 1 0 2z"/><path d="m30 5h-3a1 1 0 0 1 0-2h3a1 1 0 0 1 0 2z"/></g><path d="m56 35h-7a1 1 0 0 1 0-2h7a1 1 0 0 1 0 2z" fill="#fdc12a"/></svg>