<svg id="Capa_1" enable-background="new 0 0 512 512" height="512" viewBox="0 0 512 512" width="512" xmlns="http://www.w3.org/2000/svg"><g><circle cx="253.448" cy="256" fill="#f6e266" r="144.937"/><path d="m253.448 111.063c-3.59 0-7.148.136-10.672.392 75.062 5.464 134.264 68.089 134.264 144.545s-59.202 139.08-134.264 144.544c3.524.256 7.082.392 10.672.392 80.046 0 144.937-64.89 144.937-144.936-.001-80.046-64.891-144.937-144.937-144.937z" fill="#ecbe6b"/><g><path d="m253.448 370.555c-63.166 0-114.556-51.389-114.556-114.555s51.39-114.556 114.556-114.556 114.555 51.39 114.555 114.556-51.389 114.555-114.555 114.555zm0-213.527c-54.574 0-98.972 44.398-98.972 98.972 0 54.573 44.398 98.971 98.972 98.971 54.573 0 98.971-44.398 98.971-98.971s-44.398-98.972-98.971-98.972z" fill="#eab14d"/></g><g><path d="m251.978 304.973c-10.047 0-15.965-1.111-25.231-7.172-3.601-2.356-4.61-7.185-2.254-10.787 2.356-3.601 7.185-4.609 10.787-2.254 6.515 4.261 9.14 4.683 17.591 4.627 8.854-.059 13.993-6.661 15.02-12.77.513-3.052.716-10.502-8.464-13.747-12.896-4.558-20.343-8.133-25.707-12.34-6.371-4.997-9.28-13.661-7.593-22.611 1.837-9.747 8.623-17.504 17.711-20.241 17.664-5.32 32.733 3.996 33.366 4.394 3.639 2.296 4.729 7.107 2.432 10.748-2.287 3.626-7.07 4.717-10.705 2.459-.236-.143-9.944-5.89-20.599-2.679-4.178 1.258-6.299 5.063-6.891 8.205-.596 3.162.149 6.092 1.897 7.462 4.88 3.828 13.497 7.157 21.282 9.909 13.468 4.761 20.959 17.228 18.639 31.025-2.139 12.72-13.228 25.656-30.286 25.77-.335.001-.668.002-.995.002z" fill="#eab14d"/></g><g><path d="m252.922 317.081c-4.304 0-7.792-3.488-7.792-7.792v-106.578c0-4.304 3.488-7.792 7.792-7.792s7.792 3.488 7.792 7.792v106.578c.001 4.304-3.488 7.792-7.792 7.792z" fill="#eab14d"/></g><g><g><path d="m430.294 122.105h-56.788c-4.304 0-7.792-3.488-7.792-7.792s3.488-7.792 7.792-7.792h56.788c4.304 0 7.792 3.488 7.792 7.792s-3.488 7.792-7.792 7.792z" fill="#78c2a4"/></g><g><path d="m421.326 144.543c-1.706 0-3.422-.557-4.859-1.705-3.362-2.686-3.91-7.589-1.224-10.952l14.04-17.574-14.04-17.574c-2.687-3.362-2.139-8.266 1.224-10.952 3.363-2.687 8.265-2.138 10.952 1.224l17.926 22.438c2.273 2.845 2.273 6.883 0 9.728l-17.926 22.438c-1.539 1.926-3.806 2.929-6.093 2.929z" fill="#78c2a4"/></g></g><path d="m467.954 93.906 41.992-42.446c2.346-2.371 2.346-6.188 0-8.559l-41.992-42.446c-.958-.968-2.608-.29-2.608 1.072v18.044c0 2.841-2.303 5.145-5.145 5.145h-159.324c-1.643 0-2.975 1.332-2.975 2.975v38.979c0 1.643 1.332 2.975 2.975 2.975h159.326c2.841 0 5.145 2.303 5.145 5.145v18.044c-.001 1.362 1.649 2.04 2.606 1.072z" fill="#78c2a4"/><path d="m509.947 42.901-41.993-42.446c-.958-.968-2.608-.29-2.608 1.072v18.044c0 .308-.039.606-.091.9l20.79 21.015c3.121 3.155 3.121 8.235 0 11.39l-20.79 21.015c.052.293.091.592.091.9v18.044c0 1.362 1.65 2.04 2.608 1.072l41.992-42.446c2.346-2.372 2.346-6.189.001-8.56z" fill="#66b394"/><g><g><path d="m138.494 405.479h-56.787c-4.304 0-7.792-3.488-7.792-7.792s3.488-7.792 7.792-7.792h56.787c4.304 0 7.792 3.488 7.792 7.792s-3.488 7.792-7.792 7.792z" fill="#78c2a4"/></g><g><path d="m90.675 427.917c-2.288 0-4.554-1.002-6.093-2.928l-17.927-22.438c-2.273-2.845-2.273-6.883 0-9.728l17.927-22.438c2.685-3.362 7.588-3.91 10.952-1.224 3.362 2.686 3.91 7.589 1.224 10.952l-14.041 17.574 14.041 17.574c2.687 3.362 2.139 8.266-1.224 10.952-1.437 1.147-3.154 1.704-4.859 1.704z" fill="#78c2a4"/></g></g><path d="m44.046 418.094-41.993 42.446c-2.346 2.371-2.346 6.188 0 8.559l41.992 42.446c.958.968 2.608.29 2.608-1.072v-18.044c0-2.841 2.303-5.145 5.145-5.145h159.326c1.643 0 2.975-1.332 2.975-2.975v-38.979c0-1.643-1.332-2.975-2.975-2.975h-159.326c-2.841 0-5.145-2.303-5.145-5.145v-18.044c0-1.362-1.65-2.04-2.607-1.072z" fill="#78c2a4"/><path d="m2.053 469.099 41.992 42.446c.958.968 2.608.29 2.608-1.072v-18.044c0-.308.039-.606.091-.9l-20.79-21.015c-3.121-3.155-3.121-8.235 0-11.39l20.79-21.015c-.052-.293-.091-.592-.091-.9v-18.044c0-1.362-1.65-2.04-2.608-1.072l-41.992 42.447c-2.345 2.371-2.345 6.188 0 8.559z" fill="#66b394"/></g></svg>