<svg id="Capa_1" enable-background="new 0 0 503.508 503.508" height="512" viewBox="0 0 503.508 503.508" width="512" xmlns="http://www.w3.org/2000/svg"><g><g><g><path d="m13.356 489.243-2.566-2.566c-9.753-9.753-9.753-25.565 0-35.317l386.496-386.496 37.883 37.883-386.496 386.496c-9.752 9.753-25.564 9.753-35.317 0z" fill="#fba615"/></g><path d="m417.547 85.125-378.436 378.436c-9.674 9.674-25.307 9.747-35.078.228-1.706 8 .542 16.674 6.757 22.888l2.566 2.566c9.753 9.753 25.565 9.753 35.317 0l386.496-386.496z" fill="#f88604"/><g><path d="m395.926 104.107c47.409 47.409 78.141 105.179 92.202 166.021.772 3.339 5.509 3.334 6.277-.005 16.461-71.578-3.189-149.779-58.953-205.543-55.763-55.763-133.965-75.413-205.542-58.952-3.339.768-3.343 5.505-.005 6.277 60.842 14.061 118.611 44.793 166.021 92.202z" fill="#786e79"/></g><g><path d="m435.452 64.581c-46.67-46.671-109.055-68.027-170.121-64.107 51.637 3.292 102.337 24.644 141.8 64.107 42.456 42.456 63.954 97.917 64.544 153.56 6.884 16.953 12.375 34.34 16.454 51.988.772 3.339 5.509 3.335 6.277-.005 16.46-71.579-3.19-149.78-58.954-205.543z" fill="#453e43"/></g><g><path d="m395.952 151.265-47.184-47.184c-3.905-3.905-3.905-10.237 0-14.142l59.838-59.838c3.905-3.905 10.237-3.905 14.142 0l47.184 47.184c3.905 3.905 3.905 10.237 0 14.142l-59.838 59.838c-3.906 3.906-10.237 3.906-14.142 0z" fill="#786e79"/></g><g><path d="m458.638 65.992-48.031 48.031c-4.189 4.189-10.981 4.189-15.17 0l-35.377-35.377-11.285 11.285c-3.91 3.91-3.91 10.249 0 14.158l47.168 47.168c3.91 3.91 10.249 3.91 14.158 0l59.822-59.822c3.91-3.91 3.91-10.249 0-14.158z" fill="#453e43"/></g></g><g><path d="m288.842 207.427h-174.977v-52.905c0-5.523 4.477-10 10-10h154.977c5.523 0 10 4.477 10 10z" fill="#786e79"/></g><g><path d="m278.831 144.522h-25.714c5.924 0 10.727 4.802 10.727 10.727v52.179h24.998v-52.894c0-5.53-4.482-10.012-10.011-10.012z" fill="#453e43"/></g><g><path d="m362.2 503.508h-257.252c-14.746 0-26.7-11.954-26.7-26.7v-257.252c0-14.746 11.954-26.7 26.7-26.7h257.252c14.746 0 26.7 11.954 26.7 26.7v257.252c.001 14.746-11.954 26.7-26.7 26.7z" fill="#b1abb5"/></g><g><path d="m362.2 503.508h-257.252c-14.746 0-26.7-11.954-26.7-26.7v-257.252c0-14.746 11.954-26.7 26.7-26.7h257.252c14.746 0 26.7 11.954 26.7 26.7v257.252c.001 14.746-11.954 26.7-26.7 26.7z" fill="#b1abb5"/></g><g><path d="m362.17 192.855h-5.466v251.725c0 14.763-11.968 26.731-26.731 26.731h-251.725v5.466c0 14.763 11.968 26.731 26.731 26.731h257.191c14.763 0 26.731-11.968 26.731-26.731v-257.191c0-14.763-11.968-26.731-26.731-26.731z" fill="#786e79"/></g><g><g><circle cx="145.972" cy="175.714" fill="#ffeccf" r="10.66"/></g><g><circle cx="179.359" cy="175.714" fill="#fba615" r="10.66"/></g><g><circle cx="212.745" cy="175.714" fill="#0acefa" r="10.66"/></g></g><g><circle cx="233.574" cy="348.182" fill="#786e79" r="110.492"/></g><g><path d="m294.509 256.006c11.571 17.468 18.316 38.413 18.316 60.935 0 61.023-49.469 110.492-110.492 110.492-22.522 0-43.466-6.745-60.935-18.316 19.78 29.861 53.676 49.557 92.176 49.557 61.023 0 110.492-49.469 110.492-110.492 0-38.501-19.696-72.396-49.557-92.176z" fill="#453e43"/></g><g><g><circle cx="113.865" cy="229.415" fill="#453e43" r="10.66"/></g><g><circle cx="352.341" cy="229.415" fill="#453e43" r="10.66"/></g></g><g><g><circle cx="113.865" cy="466.103" fill="#453e43" r="10.66"/></g><g><circle cx="352.341" cy="466.103" fill="#453e43" r="10.66"/></g></g><path d="m331.621 261.315-10.619-10.619-86.985 86.985-86.984-86.985-10.62 10.619 86.985 86.985-86.985 86.985 10.62 10.619 86.984-86.985 86.985 86.985 10.619-10.619-86.985-86.985z" fill="#b2abb6"/><g><g><path d="m233.574 466.183c-65.065 0-118.001-52.935-118.001-118.001s52.935-118.001 118.001-118.001 118.001 52.935 118.001 118.001-52.936 118.001-118.001 118.001zm0-220.985c-56.785 0-102.984 46.198-102.984 102.984s46.198 102.984 102.984 102.984 102.984-46.198 102.984-102.984-46.199-102.984-102.984-102.984z" fill="#f1f0f3"/></g><g><path d="m233.574 429.876c-45.046 0-81.694-36.648-81.694-81.694s36.647-81.694 81.694-81.694 81.694 36.648 81.694 81.694-36.648 81.694-81.694 81.694zm0-148.371c-36.766 0-66.677 29.911-66.677 66.677s29.911 66.677 66.677 66.677 66.677-29.911 66.677-66.677-29.912-66.677-66.677-66.677z" fill="#f1f0f3"/></g><g><path d="m233.574 393.039c-24.734 0-44.857-20.123-44.857-44.857s20.123-44.857 44.857-44.857 44.857 20.123 44.857 44.857-20.123 44.857-44.857 44.857zm0-74.697c-16.453 0-29.84 13.386-29.84 29.84s13.386 29.84 29.84 29.84 29.84-13.386 29.84-29.84-13.387-29.84-29.84-29.84z" fill="#f1f0f3"/></g></g></g></svg>