<svg id="Capa_1" enable-background="new 0 0 512 512" height="512" viewBox="0 0 512 512" width="512" xmlns="http://www.w3.org/2000/svg"><g><g><circle cx="260.039" cy="273.881" fill="#fba615" r="98.244"/></g><g><path d="m310.918 189.822c9.002 14.84 14.185 32.254 14.185 50.879 0 54.259-43.985 98.244-98.244 98.244-18.625 0-36.038-5.183-50.879-14.185 17.223 28.393 48.425 47.365 84.059 47.365 54.259 0 98.244-43.985 98.244-98.244 0-35.634-18.972-66.836-47.365-84.059z" fill="#f88604"/></g><g><path d="m260.038 379.697c-58.347 0-105.816-47.469-105.816-105.816s47.469-105.816 105.816-105.816c58.348 0 105.816 47.469 105.816 105.816s-47.468 105.816-105.816 105.816zm0-196.488c-49.997 0-90.672 40.675-90.672 90.672s40.675 90.672 90.672 90.672 90.672-40.675 90.672-90.672-40.675-90.672-90.672-90.672z" fill="#ffeccf"/></g><path d="m298.49 293.816c0-10.323-5.265-19.438-13.249-24.805 3.631-4.553 5.81-10.313 5.81-16.576 0-9.468-4.97-17.792-12.435-22.516v-14.549c0-4.182-3.39-7.572-7.572-7.572s-7.572 3.39-7.572 7.572v10.431h-8.481v-10.431c0-4.182-3.39-7.572-7.572-7.572s-7.572 3.39-7.572 7.572v10.457c-3.944.263-7.064 3.536-7.064 7.547v82.839c0 2.014.803 3.945 2.23 5.366 1.298 1.293 3.018 2.059 4.834 2.181v9.112c0 4.182 3.39 7.572 7.572 7.572s7.572-3.39 7.572-7.572v-9.146c2.972-.011 5.953-.022 8.481-.029v9.175c0 4.182 3.39 7.572 7.572 7.572s7.572-3.39 7.572-7.572v-10.912c11.568-4.121 19.874-15.179 19.874-28.144zm-50.563-29.87v-23.001h16.491c6.335 0 11.489 5.154 11.489 11.489s-5.155 11.489-11.489 11.489c-1.763.001-16.491.023-16.491.023zm20.693 44.596c-3.774 0-13.671.037-20.694.067v-29.489l20.694-.03c8.119 0 14.725 6.606 14.725 14.726s-6.605 14.726-14.725 14.726z" fill="#ffeccf"/><g><path d="m449.365 110.193h-17.071c-34.593 0-62.635 28.043-62.635 62.635v.65c0 2.74 2.221 4.961 4.961 4.961h132.421c2.74 0 4.961-2.221 4.961-4.961v-.65c-.002-34.593-28.045-62.635-62.637-62.635z" fill="#b1abb5"/></g><g><path d="m448.762 110.193h-15.866c-1.217 0-2.423.043-3.623.11 33.238 1.878 59.615 29.419 59.615 63.127 0 2.766-2.242 5.008-5.008 5.008h23.112c2.766 0 5.008-2.242 5.008-5.008 0-34.925-28.312-63.237-63.238-63.237z" fill="#786e79"/></g><g><g><g><path d="m470.903 70.968c-.189-.014-.373-.018-.554-.017v-11.308c0-14.281-11.577-25.858-25.858-25.858h-6.915c-14.281 0-25.858 11.577-25.858 25.858v11.324c-.308-.021-.627-.023-.962.002-4.781.352-8.478 3.058-8.06 8.73.41 5.572 4.639 11.928 9.32 11.817 2.017 14.224 14.237 25.164 29.018 25.164 14.783 0 27.004-10.944 29.019-25.171 4.516-.254 8.513-6.402 8.911-11.811.417-5.672-3.28-8.378-8.061-8.73z" fill="#b1abb5"/></g></g><g><path d="m470.903 70.968c-.189-.014-.373-.018-.554-.017v-11.308c0-13.91-10.985-25.251-24.753-25.83 7.579 4.508 12.66 12.777 12.66 22.235 0 0-.297 25.949-.297 31.866-2.014 14.227-14.236 25.171-29.019 25.171-.715 0-1.422-.033-2.125-.084 4.211 2.341 9.057 3.678 14.218 3.678 14.783 0 27.004-10.944 29.019-25.171 4.516-.254 8.513-6.402 8.911-11.811.418-5.671-3.279-8.377-8.06-8.729z" fill="#786e79"/></g></g><g><path d="m79.706 110.193h-17.071c-34.592 0-62.635 28.042-62.635 62.635v.65c0 2.74 2.221 4.961 4.961 4.961h132.421c2.74 0 4.961-2.221 4.961-4.961v-.65c-.001-34.593-28.044-62.635-62.637-62.635z" fill="#b1abb5"/></g><g><path d="m79.104 110.193h-15.866c-1.217 0-2.423.043-3.623.11 33.238 1.878 59.615 29.419 59.615 63.127 0 2.766-2.242 5.008-5.008 5.008h23.112c2.766 0 5.008-2.242 5.008-5.008 0-34.925-28.313-63.237-63.238-63.237z" fill="#786e79"/></g><g><g><g><path d="m101.244 70.968c-.189-.014-.373-.018-.554-.017v-11.308c0-14.281-11.577-25.858-25.858-25.858h-6.915c-14.281 0-25.858 11.577-25.858 25.858v11.324c-.308-.021-.627-.023-.962.002-4.781.352-8.478 3.058-8.06 8.73.41 5.572 4.639 11.928 9.32 11.817 2.017 14.224 14.237 25.164 29.018 25.164 14.783 0 27.004-10.944 29.019-25.171 4.516-.254 8.513-6.402 8.911-11.811.418-5.672-3.28-8.378-8.061-8.73z" fill="#b1abb5"/></g></g><g><path d="m101.245 70.968c-.189-.014-.373-.018-.554-.017v-11.308c0-13.91-10.985-25.251-24.753-25.83 7.579 4.508 12.66 12.777 12.66 22.235 0 0-.297 25.949-.297 31.866-2.015 14.227-14.236 25.171-29.019 25.171-.715 0-1.422-.033-2.125-.084 4.211 2.341 9.057 3.678 14.218 3.678 14.783 0 27.004-10.944 29.019-25.171 4.516-.254 8.513-6.402 8.911-11.811.417-5.671-3.28-8.377-8.06-8.729z" fill="#786e79"/></g></g><g><path d="m449.365 409.969h-17.071c-34.593 0-62.635 28.043-62.635 62.635v.65c0 2.74 2.221 4.961 4.961 4.961h132.421c2.74 0 4.961-2.221 4.961-4.961v-.65c-.002-34.592-28.045-62.635-62.637-62.635z" fill="#b1abb5"/></g><g><path d="m448.762 409.969h-15.866c-1.217 0-2.423.043-3.623.11 33.238 1.879 59.615 29.419 59.615 63.127 0 2.766-2.242 5.008-5.008 5.008h23.112c2.766 0 5.008-2.242 5.008-5.008 0-34.924-28.312-63.237-63.238-63.237z" fill="#786e79"/></g><g><g><g><path d="m470.903 370.745c-.189-.014-.373-.018-.554-.017v-11.309c0-14.281-11.577-25.858-25.858-25.858h-6.915c-14.281 0-25.858 11.577-25.858 25.858v11.324c-.308-.021-.627-.023-.962.002-4.781.352-8.478 3.058-8.06 8.73.41 5.572 4.639 11.928 9.32 11.817 2.017 14.224 14.237 25.164 29.018 25.164 14.783 0 27.004-10.944 29.019-25.171 4.516-.254 8.513-6.402 8.911-11.811.417-5.671-3.28-8.377-8.061-8.729z" fill="#b1abb5"/></g></g><g><path d="m470.903 370.745c-.189-.014-.373-.018-.554-.017v-11.309c0-13.91-10.985-25.251-24.753-25.83 7.579 4.508 12.66 12.777 12.66 22.235 0 0-.297 25.949-.297 31.866-2.014 14.227-14.236 25.171-29.019 25.171-.715 0-1.422-.033-2.125-.084 4.211 2.341 9.057 3.678 14.218 3.678 14.783 0 27.004-10.944 29.019-25.171 4.516-.254 8.513-6.402 8.911-11.811.418-5.67-3.279-8.376-8.06-8.728z" fill="#786e79"/></g></g><g><path d="m79.706 409.969h-17.071c-34.592 0-62.635 28.043-62.635 62.636v.65c0 2.74 2.221 4.961 4.961 4.961h132.421c2.74 0 4.961-2.221 4.961-4.961v-.65c-.001-34.593-28.044-62.636-62.637-62.636z" fill="#b1abb5"/></g><g><path d="m79.104 409.969h-15.866c-1.217 0-2.423.043-3.623.11 33.238 1.879 59.615 29.419 59.615 63.127 0 2.766-2.242 5.008-5.008 5.008h23.112c2.766 0 5.008-2.242 5.008-5.008 0-34.924-28.313-63.237-63.238-63.237z" fill="#786e79"/></g><g><g><g><path d="m101.244 370.745c-.189-.014-.373-.018-.554-.017v-11.309c0-14.281-11.577-25.858-25.858-25.858h-6.915c-14.281 0-25.858 11.577-25.858 25.858v11.324c-.308-.021-.627-.023-.962.002-4.781.352-8.478 3.058-8.06 8.73.41 5.572 4.639 11.928 9.32 11.817 2.017 14.224 14.237 25.164 29.018 25.164 14.783 0 27.004-10.944 29.019-25.171 4.516-.254 8.513-6.402 8.911-11.811.418-5.671-3.28-8.377-8.061-8.729z" fill="#b1abb5"/></g></g><g><path d="m101.245 370.745c-.189-.014-.373-.018-.554-.017v-11.309c0-13.91-10.985-25.251-24.753-25.83 7.579 4.508 12.66 12.777 12.66 22.235 0 0-.297 25.949-.297 31.866-2.015 14.227-14.236 25.171-29.019 25.171-.715 0-1.422-.033-2.125-.084 4.211 2.341 9.057 3.678 14.218 3.678 14.783 0 27.004-10.944 29.019-25.171 4.516-.254 8.513-6.402 8.911-11.811.417-5.67-3.28-8.376-8.06-8.728z" fill="#786e79"/></g></g><g><path d="m256 470.22c-33.111 0-65.855-8.409-94.694-24.318-3.662-2.02-4.993-6.626-2.973-10.287 2.019-3.662 6.626-4.993 10.287-2.973 26.604 14.676 56.82 22.433 87.379 22.433s60.774-7.757 87.38-22.433c3.663-2.021 8.268-.689 10.287 2.973s.688 8.268-2.973 10.287c-28.838 15.909-61.583 24.318-94.693 24.318z" fill="#b1abb5"/></g><g><path d="m441.647 315.81c-.455 0-.915-.041-1.378-.126-4.113-.757-6.834-4.704-6.077-8.817 1.993-10.838 3.003-21.936 3.003-32.986 0-23.937-4.603-47.209-13.681-69.169-1.598-3.864.24-8.293 4.105-9.891 3.862-1.595 8.293.24 9.89 4.105 9.841 23.803 14.831 49.021 14.831 74.954 0 11.966-1.094 23.985-3.254 35.725-.671 3.651-3.856 6.205-7.439 6.205z" fill="#b1abb5"/></g><g><path d="m70.354 315.81c-3.583 0-6.768-2.554-7.439-6.204-2.159-11.739-3.253-23.759-3.253-35.725 0-25.932 4.989-51.15 14.83-74.954 1.598-3.865 6.026-5.702 9.891-4.105 3.865 1.598 5.703 6.026 4.105 9.891-9.079 21.961-13.682 45.232-13.682 69.169 0 11.05 1.011 22.147 3.004 32.986.756 4.113-1.965 8.06-6.078 8.817-.463.083-.924.125-1.378.125z" fill="#b1abb5"/></g><g><path d="m363.592 126.352c-1.492 0-2.997-.439-4.316-1.355-30.406-21.137-66.118-32.31-103.277-32.31s-72.871 11.173-103.277 32.31c-3.434 2.387-8.152 1.54-10.54-1.895-2.387-3.434-1.539-8.153 1.895-10.54 32.956-22.91 71.658-35.02 111.922-35.02 40.263 0 78.966 12.109 111.921 35.02 3.433 2.387 4.282 7.106 1.895 10.54-1.47 2.116-3.827 3.25-6.223 3.25z" fill="#b1abb5"/></g></g></svg>