<svg id="Capa_1" enable-background="new 0 0 512 512" height="512" viewBox="0 0 512 512" width="512" xmlns="http://www.w3.org/2000/svg"><g><g><path d="m17.059 457.826c-1.949 0-3.897-.743-5.384-2.23-2.973-2.973-2.973-7.794 0-10.767l62.429-62.429c2.975-2.974 7.795-2.973 10.768 0s2.973 7.794 0 10.767l-62.429 62.429c-1.488 1.487-3.437 2.23-5.384 2.23z" fill="#faa61a"/></g><g><path d="m75.157 466.063c-1.948 0-3.897-.743-5.384-2.23-2.973-2.973-2.973-7.794 0-10.767l66.475-66.475c2.974-2.973 7.794-2.973 10.768 0 2.973 2.973 2.973 7.794 0 10.767l-66.475 66.475c-1.487 1.487-3.436 2.23-5.384 2.23z" fill="#faa61a"/></g><g><path d="m7.613 400.82c-1.948 0-3.897-.743-5.384-2.23-2.973-2.973-2.973-7.794 0-10.767l62.428-62.429c2.974-2.973 7.794-2.973 10.768 0 2.973 2.973 2.973 7.794 0 10.767l-62.428 62.429c-1.487 1.486-3.436 2.23-5.384 2.23z" fill="#faa61a"/></g><g><circle cx="269.597" cy="197.063" fill="#fba615" r="183.371"/></g><g><path d="m372.483 45.259c19.922 29.338 31.567 64.751 31.567 102.886 0 101.273-82.098 183.371-183.372 183.371-38.135 0-73.548-11.645-102.886-31.567 32.985 48.573 88.666 80.485 151.804 80.485 101.273 0 183.371-82.098 183.371-183.371.002-63.139-31.911-118.82-80.484-151.804z" fill="#f88604"/></g><g><path d="m269.598 388.047c-105.31 0-190.985-85.675-190.985-190.985s85.675-190.984 190.985-190.984c105.309 0 190.984 85.675 190.984 190.985s-85.675 190.984-190.984 190.984zm0-366.743c-96.914 0-175.759 78.845-175.759 175.758s78.845 175.758 175.759 175.758 175.758-78.845 175.758-175.758-78.845-175.758-175.758-175.758z" fill="#ffeccf"/></g><path d="m336.891 243.35c0-20.888-12.541-38.891-30.483-46.908 9.711-8.263 15.889-20.56 15.889-34.28 0-17.406-9.938-32.524-24.431-40.01.021-.23.035-.463.035-.698v-32.01c0-4.205-3.408-7.613-7.613-7.613s-7.613 3.409-7.613 7.613v28.042c-1.768-.212-3.564-.334-5.388-.334h-25.738v-27.708c0-4.205-3.408-7.613-7.613-7.613s-7.613 3.409-7.613 7.613v27.708h-6.245c-4.205 0-7.613 3.409-7.613 7.613v162.525c0 2.025.807 3.967 2.242 5.395 1.426 1.421 3.358 2.218 5.371 2.218h.034c.1 0 2.476-.011 6.211-.027v25.097c0 4.205 3.408 7.613 7.613 7.613s7.613-3.409 7.613-7.613v-25.16c11.136-.044 23.889-.09 31.126-.101v25.261c0 4.205 3.408 7.613 7.613 7.613s7.613-3.409 7.613-7.613v-26.779c22.363-5.551 38.99-25.788 38.99-49.844zm-29.82-81.188c0 16.423-13.361 29.784-29.784 29.784-3.461 0-39.597.044-39.597.044v-59.612h39.597c16.423.001 29.784 13.361 29.784 29.784zm-21.539 117.321c-8.791 0-34.793.105-47.841.161v-72.339c5.979-.025 47.841-.088 47.841-.088 19.924 0 36.133 16.209 36.133 36.133s-16.209 36.133-36.133 36.133z" fill="#ffeccf"/><g><g><path d="m153.07 502.837-22.344-22.344c-4.113-4.113-4.113-10.782 0-14.895l111.149-111.148c6.499-6.498 15.138-10.076 24.326-10.076 9.191 0 17.832 3.579 24.33 10.08l42.638 42.64 126.41-126.411 37.239 37.238-139.32 139.32c-13.416 13.414-35.241 13.411-48.654 0l-42.642-42.642-98.237 98.238c-4.113 4.113-10.782 4.113-14.895 0z" fill="#0dc17a"/></g></g><g><path d="m357.498 424.038c-13.416 13.414-35.241 13.411-48.654 0l-42.642-42.642-98.237 98.238c-4.113 4.113-10.782 4.113-14.895 0l-18.189-18.189-4.154 4.154c-4.113 4.113-4.113 10.782 0 14.895l22.344 22.344c4.113 4.113 10.782 4.113 14.895 0l98.237-98.238 42.642 42.642c13.413 13.411 35.238 13.414 48.654 0l139.32-139.32-11.602-11.602z" fill="#09a657"/></g><g><g><path d="m501.468 397.521h-31.597c-5.817 0-10.532-4.715-10.532-10.532v-68.85c0-5.817-4.715-10.532-10.532-10.532h-68.851c-5.817 0-10.532-4.715-10.532-10.532v-31.597c0-5.817 4.715-10.532 10.532-10.532h121.512c5.817 0 10.532 4.715 10.532 10.532v121.511c0 5.817-4.716 10.532-10.532 10.532z" fill="#0dc17a"/></g></g><g><g><path d="m501.467 254.946h-4.161v117.35c0 5.817-4.715 10.532-10.532 10.532h-27.436v4.161c0 5.817 4.716 10.532 10.532 10.532h31.597c5.817 0 10.533-4.715 10.533-10.532v-121.511c0-5.817-4.716-10.532-10.533-10.532z" fill="#09a657"/></g></g></g></svg>