<svg id="Layer" enable-background="new 0 0 64 64" height="512" viewBox="0 0 64 64" width="512" xmlns="http://www.w3.org/2000/svg"><g fill="#012e52"><path d="m48.414 15.586c-.781-.781-2.047-.781-2.828 0s-.781 2.047 0 2.828l3.586 3.586h-39.172c-1.104 0-2 .896-2 2s.896 2 2 2h39.172l-3.586 3.586c-.781.781-.781 2.047 0 2.828.391.391.902.586 1.414.586s1.023-.195 1.414-.586l7-7c.781-.781.781-2.047 0-2.828z"/><path d="m54 38h-39.172l3.586-3.586c.781-.781.781-2.047 0-2.828s-2.047-.781-2.828 0l-7 7c-.781.781-.781 2.047 0 2.828l7 7c.391.391.902.586 1.414.586s1.023-.195 1.414-.586c.781-.781.781-2.047 0-2.828l-3.586-3.586h39.172c1.104 0 2-.896 2-2s-.896-2-2-2z"/></g></svg>