<svg id="Capa_1" enable-background="new 0 0 512 512" height="512" viewBox="0 0 512 512" width="512" xmlns="http://www.w3.org/2000/svg"><g><g><g><path d="m252.337 235.935h-229.158c-12.801 0-23.179-10.378-23.179-23.179v-143.377c0-12.801 10.378-23.179 23.179-23.179h229.158c12.801 0 23.179 10.378 23.179 23.179v143.376c0 12.802-10.378 23.18-23.179 23.18z" fill="#c56e37"/></g><g><path d="m252.385 46.2h-1.157v142.316c0 12.775-10.356 23.131-23.131 23.131h-228.097v1.157c0 12.775 10.356 23.131 23.131 23.131h229.254c12.775 0 23.131-10.356 23.131-23.131v-143.473c0-12.775-10.356-23.131-23.131-23.131z" fill="#a95e2c"/></g><g><path d="m286.594 173.349h-102.967c-5.85 0-10.592-4.742-10.592-10.592v-43.378c0-5.85 4.742-10.592 10.592-10.592h102.967c5.85 0 10.592 4.742 10.592 10.592v43.378c0 5.85-4.743 10.592-10.592 10.592z" fill="#a95e2c"/></g><g><path d="m286.616 108.786h-5.989v37.433c0 5.838-4.732 10.57-10.57 10.57h-97.022v5.989c0 5.838 4.732 10.57 10.57 10.57h103.011c5.838 0 10.57-4.732 10.57-10.57v-43.423c0-5.836-4.733-10.569-10.57-10.569z" fill="#8f4e24"/></g><g><circle cx="206.415" cy="139.983" fill="#f0f0f3" r="9.437"/></g></g><g><g><circle cx="409.915" cy="173.349" fill="#fba615" r="69.311"/></g><g><path d="m445.81 114.045c6.351 10.47 10.008 22.755 10.008 35.895 0 38.279-31.032 69.311-69.311 69.311-13.14 0-25.425-3.657-35.895-10.008 12.151 20.032 34.164 33.416 59.304 33.416 38.28 0 69.311-31.032 69.311-69.311-.001-25.139-13.386-47.152-33.417-59.303z" fill="#f88604"/></g><g><path d="m409.915 250.144c-42.345 0-76.796-34.45-76.796-76.795s34.451-76.796 76.796-76.796 76.795 34.451 76.795 76.796-34.45 76.795-76.795 76.795zm0-138.622c-34.092 0-61.827 27.735-61.827 61.827 0 34.091 27.735 61.826 61.827 61.826 34.091 0 61.826-27.735 61.826-61.826 0-34.092-27.735-61.827-61.826-61.827z" fill="#ffeccf"/></g><path d="m428.922 169.131c1.71-2.898 2.71-6.263 2.71-9.865 0-10.748-8.743-19.492-19.491-19.492h-15.157c-4.134 0-7.484 3.35-7.484 7.484v52.179c0 1.991.793 3.899 2.203 5.304 1.403 1.396 3.302 2.18 5.281 2.18h.033c.001 0 13.932-.061 17.771-.061 11.872 0 21.529-9.658 21.529-21.529 0-6.46-2.874-12.251-7.395-16.2zm-16.781-14.388c2.494 0 4.522 2.029 4.522 4.523s-2.028 4.522-4.522 4.522c-1.146 0-7.673.015-7.673.015v-9.059h7.673zm2.647 37.149c-1.92 0-6.353.016-10.319.03v-13.144l10.319-.007c3.617 0 6.561 2.943 6.561 6.561s-2.944 6.56-6.561 6.56z" fill="#ffeccf"/></g><g><g><path d="m170.619 400.06c-64.818 0-117.552-52.734-117.552-117.552h29.938c0 48.311 39.304 87.614 87.614 87.614z" fill="#fba615"/></g></g><g><path d="m83.004 282.508h-29.937c0 3.074.12 6.12.353 9.135h25.094c0 48.311 39.304 87.614 87.614 87.614v20.709c1.491.056 2.986.094 4.491.094v-29.938c-48.311.001-87.615-39.303-87.615-87.614z" fill="#f88604"/></g><g><g><path d="m129.038 427.419-10.912-16.711c-1.507-2.307-.858-5.399 1.45-6.906l34.248-22.364-22.365-34.249c-1.507-2.307-.858-5.399 1.45-6.906l16.711-10.912c2.307-1.507 5.399-.858 6.906 1.45l36.005 55.136c1.507 2.307.858 5.399-1.45 6.906l-55.137 36.006c-2.308 1.507-5.4.858-6.906-1.45z" fill="#fba615"/></g></g><g><path d="m192.53 385.957-36.005-55.136c-1.507-2.307-4.598-2.956-6.906-1.45l-5.055 3.301 32.592 49.909c1.507 2.307.858 5.399-1.45 6.906l-50.082 32.705 3.413 5.227c1.507 2.307 4.599 2.956 6.906 1.45l55.137-36.006c2.308-1.507 2.957-4.599 1.45-6.906z" fill="#f88604"/></g><g><g><path d="m37.417 323.967-15.582-12.471c-2.151-1.722-2.5-4.862-.778-7.013l41.147-51.414c1.722-2.152 4.862-2.5 7.013-.778l51.414 41.148c2.152 1.722 2.5 4.862.778 7.013l-12.471 15.582c-1.722 2.151-4.862 2.5-7.013.778l-31.935-25.558-25.56 31.936c-1.721 2.151-4.861 2.499-7.013.777z" fill="#fba615"/></g></g><g><g><path d="m120.632 293.439-51.414-41.148c-2.152-1.722-5.291-1.374-7.013.778l-3.846 4.806 46.931 37.56c2.152 1.722 2.5 4.862.778 7.013l-8.625 10.776 4.483 3.588c2.151 1.722 5.291 1.374 7.013-.778l12.471-15.582c1.722-2.151 1.374-5.291-.778-7.013z" fill="#f88604"/></g></g><g><g><path d="m467.151 465.8h-229.158c-12.801 0-23.179-10.378-23.179-23.179v-143.377c0-12.801 10.378-23.179 23.179-23.179h229.158c12.801 0 23.179 10.378 23.179 23.179v143.376c0 12.802-10.377 23.18-23.179 23.18z" fill="#c56e37"/></g><g><path d="m467.199 276.065h-1.157v142.316c0 12.775-10.356 23.131-23.131 23.131h-228.097v1.157c0 12.775 10.356 23.131 23.131 23.131h229.254c12.775 0 23.131-10.356 23.131-23.131v-143.473c0-12.775-10.356-23.131-23.131-23.131z" fill="#a95e2c"/></g><g><path d="m501.408 403.214h-102.967c-5.85 0-10.592-4.742-10.592-10.592v-43.378c0-5.85 4.742-10.592 10.592-10.592h102.967c5.85 0 10.592 4.742 10.592 10.592v43.378c0 5.85-4.742 10.592-10.592 10.592z" fill="#a95e2c"/></g><g><path d="m501.43 338.651h-5.989v37.433c0 5.838-4.732 10.57-10.57 10.57h-97.022v5.989c0 5.838 4.732 10.57 10.57 10.57h103.011c5.838 0 10.57-4.732 10.57-10.57v-43.422c0-5.837-4.732-10.57-10.57-10.57z" fill="#8f4e24"/></g><g><circle cx="420.441" cy="370.932" fill="#f0f0f3" r="9.437"/></g></g></g></svg>